<?xml version="1.0" encoding="UTF-8" standalone="no"?>
<!DOCTYPE svg PUBLIC "-//W3C//DTD SVG 1.1//EN"
 "http://www.w3.org/Graphics/SVG/1.1/DTD/svg11.dtd">
<!-- Generated by graphviz version 2.38.0 (20140413.2041)
 -->
<!-- Title: G Pages: 1 -->
<svg width="342pt" height="968pt"
 viewBox="0.00 0.00 342.05 968.00" xmlns="http://www.w3.org/2000/svg" xmlns:xlink="http://www.w3.org/1999/xlink">
<g id="graph0" class="graph" transform="scale(1 1) rotate(0) translate(4 964)">
<title>G</title>
<polygon fill="white" stroke="none" points="-4,4 -4,-964 338.046,-964 338.046,4 -4,4"/>
<g id="clust1" class="cluster"><title>cluster_Global</title>
<path fill="none" stroke="gray" d="M20,-44C20,-44 314.046,-44 314.046,-44 320.046,-44 326.046,-50 326.046,-56 326.046,-56 326.046,-940 326.046,-940 326.046,-946 320.046,-952 314.046,-952 314.046,-952 20,-952 20,-952 14,-952 8,-946 8,-940 8,-940 8,-56 8,-56 8,-50 14,-44 20,-44"/>
<text text-anchor="middle" x="167.023" y="-939.2" font-family="Times New Roman,serif" font-size="11.00" fill="gray">Global</text>
</g>
<g id="clust2" class="cluster"><title>cluster_\Tale</title>
<path fill="none" stroke="gray" d="M28,-52C28,-52 306.046,-52 306.046,-52 312.046,-52 318.046,-58 318.046,-64 318.046,-64 318.046,-912 318.046,-912 318.046,-918 312.046,-924 306.046,-924 306.046,-924 28,-924 28,-924 22,-924 16,-918 16,-912 16,-912 16,-64 16,-64 16,-58 22,-52 28,-52"/>
<text text-anchor="middle" x="167.023" y="-911.2" font-family="Times New Roman,serif" font-size="11.00" fill="gray">Tale</text>
</g>
<g id="clust3" class="cluster"><title>cluster_\Tale\Jade</title>
<path fill="none" stroke="gray" d="M36,-60C36,-60 298.046,-60 298.046,-60 304.046,-60 310.046,-66 310.046,-72 310.046,-72 310.046,-884 310.046,-884 310.046,-890 304.046,-896 298.046,-896 298.046,-896 36,-896 36,-896 30,-896 24,-890 24,-884 24,-884 24,-72 24,-72 24,-66 30,-60 36,-60"/>
<text text-anchor="middle" x="167.023" y="-883.2" font-family="Times New Roman,serif" font-size="11.00" fill="gray">Jade</text>
</g>
<g id="clust4" class="cluster"><title>cluster_\Tale\Jade\Compiler</title>
<path fill="none" stroke="gray" d="M211.546,-544C211.546,-544 280.546,-544 280.546,-544 286.546,-544 292.546,-550 292.546,-556 292.546,-556 292.546,-604 292.546,-604 292.546,-610 286.546,-616 280.546,-616 280.546,-616 211.546,-616 211.546,-616 205.546,-616 199.546,-610 199.546,-604 199.546,-604 199.546,-556 199.546,-556 199.546,-550 205.546,-544 211.546,-544"/>
<text text-anchor="middle" x="246.046" y="-603.2" font-family="Times New Roman,serif" font-size="11.00" fill="gray">Compiler</text>
</g>
<g id="clust5" class="cluster"><title>cluster_\Tale\Jade\Lexer</title>
<path fill="none" stroke="gray" d="M211.546,-464C211.546,-464 280.546,-464 280.546,-464 286.546,-464 292.546,-470 292.546,-476 292.546,-476 292.546,-524 292.546,-524 292.546,-530 286.546,-536 280.546,-536 280.546,-536 211.546,-536 211.546,-536 205.546,-536 199.546,-530 199.546,-524 199.546,-524 199.546,-476 199.546,-476 199.546,-470 205.546,-464 211.546,-464"/>
<text text-anchor="middle" x="246.046" y="-523.2" font-family="Times New Roman,serif" font-size="11.00" fill="gray">Lexer</text>
</g>
<g id="clust6" class="cluster"><title>cluster_\Tale\Jade\Parser</title>
<path fill="none" stroke="gray" d="M211.546,-330C211.546,-330 280.546,-330 280.546,-330 286.546,-330 292.546,-336 292.546,-342 292.546,-342 292.546,-444 292.546,-444 292.546,-450 286.546,-456 280.546,-456 280.546,-456 211.546,-456 211.546,-456 205.546,-456 199.546,-450 199.546,-444 199.546,-444 199.546,-342 199.546,-342 199.546,-336 205.546,-330 211.546,-330"/>
<text text-anchor="middle" x="246.046" y="-443.2" font-family="Times New Roman,serif" font-size="11.00" fill="gray">Parser</text>
</g>
<g id="clust7" class="cluster"><title>cluster_\Tale\Jade\Renderer</title>
<path fill="none" stroke="gray" d="M44,-624C44,-624 290.046,-624 290.046,-624 296.046,-624 302.046,-630 302.046,-636 302.046,-636 302.046,-856 302.046,-856 302.046,-862 296.046,-868 290.046,-868 290.046,-868 44,-868 44,-868 38,-868 32,-862 32,-856 32,-856 32,-636 32,-636 32,-630 38,-624 44,-624"/>
<text text-anchor="middle" x="167.023" y="-855.2" font-family="Times New Roman,serif" font-size="11.00" fill="gray">Renderer</text>
</g>
<g id="clust8" class="cluster"><title>cluster_\Tale\Jade\Renderer\Adapter</title>
<path fill="none" stroke="gray" d="M210.046,-632C210.046,-632 282.046,-632 282.046,-632 288.046,-632 294.046,-638 294.046,-644 294.046,-644 294.046,-828 294.046,-828 294.046,-834 288.046,-840 282.046,-840 282.046,-840 210.046,-840 210.046,-840 204.046,-840 198.046,-834 198.046,-828 198.046,-828 198.046,-644 198.046,-644 198.046,-638 204.046,-632 210.046,-632"/>
<text text-anchor="middle" x="246.046" y="-827.2" font-family="Times New Roman,serif" font-size="11.00" fill="gray">Adapter</text>
</g>
<g id="clust9" class="cluster"><title>cluster_\Tale\Jade\Renderer\Adapter\Stream</title>
<path fill="none" stroke="gray" d="M218.046,-740C218.046,-740 274.046,-740 274.046,-740 280.046,-740 286.046,-746 286.046,-752 286.046,-752 286.046,-800 286.046,-800 286.046,-806 280.046,-812 274.046,-812 274.046,-812 218.046,-812 218.046,-812 212.046,-812 206.046,-806 206.046,-800 206.046,-800 206.046,-752 206.046,-752 206.046,-746 212.046,-740 218.046,-740"/>
<text text-anchor="middle" x="246.046" y="-799.2" font-family="Times New Roman,serif" font-size="11.00" fill="gray">Stream</text>
</g>
<!-- \\Tale\\Jade\\Compiler\\Exception -->
<g id="node1" class="node"><title>\\Tale\\Jade\\Compiler\\Exception</title>
<polygon fill="none" stroke="black" points="284.546,-588 207.546,-588 207.546,-552 284.546,-552 284.546,-588"/>
<text text-anchor="middle" x="246.046" y="-567.2" font-family="Courier,monospace" font-size="11.00">Exception</text>
</g>
<!-- \\Exception -->
<g id="node14" class="node"><title>\\Exception</title>
<ellipse fill="none" stroke="black" cx="85.5" cy="-18" rx="50.0912" ry="18"/>
<text text-anchor="middle" x="85.5" y="-14.3" font-family="Times New Roman,serif" font-size="14.00" fill="gray">\Exception</text>
</g>
<!-- \\Tale\\Jade\\Compiler\\Exception&#45;&gt;\\Exception -->
<g id="edge1" class="edge"><title>\\Tale\\Jade\\Compiler\\Exception&#45;&gt;\\Exception</title>
<path fill="none" stroke="black" d="M209.467,-551.834C205.123,-548.395 201.136,-544.454 198.046,-540 141.008,-457.799 100.831,-142.894 89.651,-46.3235"/>
<polygon fill="none" stroke="black" points="93.102,-45.6944 88.4883,-36.1569 86.1473,-46.4898 93.102,-45.6944"/>
</g>
<!-- \\Tale\\Jade\\Lexer\\Exception -->
<g id="node2" class="node"><title>\\Tale\\Jade\\Lexer\\Exception</title>
<polygon fill="none" stroke="black" points="284.546,-508 207.546,-508 207.546,-472 284.546,-472 284.546,-508"/>
<text text-anchor="middle" x="246.046" y="-487.2" font-family="Courier,monospace" font-size="11.00">Exception</text>
</g>
<!-- \\Tale\\Jade\\Lexer\\Exception&#45;&gt;\\Exception -->
<g id="edge2" class="edge"><title>\\Tale\\Jade\\Lexer\\Exception&#45;&gt;\\Exception</title>
<path fill="none" stroke="black" d="M209.616,-471.729C205.25,-468.305 201.217,-464.396 198.046,-460 102.5,-327.556 88.5105,-121.445 86.678,-46.4811"/>
<polygon fill="none" stroke="black" points="90.1759,-46.3289 86.4876,-36.3968 83.1771,-46.4611 90.1759,-46.3289"/>
</g>
<!-- \\Tale\\Jade\\Parser\\Exception -->
<g id="node3" class="node"><title>\\Tale\\Jade\\Parser\\Exception</title>
<polygon fill="none" stroke="black" points="284.546,-428 207.546,-428 207.546,-392 284.546,-392 284.546,-428"/>
<text text-anchor="middle" x="246.046" y="-407.2" font-family="Courier,monospace" font-size="11.00">Exception</text>
</g>
<!-- \\Tale\\Jade\\Parser\\Exception&#45;&gt;\\Exception -->
<g id="edge3" class="edge"><title>\\Tale\\Jade\\Parser\\Exception&#45;&gt;\\Exception</title>
<path fill="none" stroke="black" d="M207.5,-392.135C203.99,-389.425 200.744,-386.385 198.046,-383 114.712,-278.456 93.4473,-111.972 88.1774,-46.1262"/>
<polygon fill="none" stroke="black" points="91.6636,-45.8087 87.438,-36.093 84.6825,-46.3233 91.6636,-45.8087"/>
</g>
<!-- \\Tale\\Jade\\Parser\\Node -->
<g id="node4" class="node"><title>\\Tale\\Jade\\Parser\\Node</title>
<polygon fill="none" stroke="black" points="273.046,-374 219.046,-374 219.046,-338 273.046,-338 273.046,-374"/>
<text text-anchor="middle" x="246.046" y="-353.2" font-family="Courier,monospace" font-size="11.00">Node</text>
</g>
<!-- \\Tale\\Jade\\Renderer\\Adapter\\Stream\\Wrapper -->
<g id="node5" class="node"><title>\\Tale\\Jade\\Renderer\\Adapter\\Stream\\Wrapper</title>
<polygon fill="none" stroke="black" points="278.046,-784 214.046,-784 214.046,-748 278.046,-748 278.046,-784"/>
<text text-anchor="middle" x="246.046" y="-763.2" font-family="Courier,monospace" font-size="11.00">Wrapper</text>
</g>
<!-- \\Tale\\Jade\\Renderer\\Adapter\\File -->
<g id="node6" class="node"><title>\\Tale\\Jade\\Renderer\\Adapter\\File</title>
<polygon fill="none" stroke="black" points="273.046,-730 219.046,-730 219.046,-694 273.046,-694 273.046,-730"/>
<text text-anchor="middle" x="246.046" y="-709.2" font-family="Courier,monospace" font-size="11.00">File</text>
</g>
<!-- \\Tale\\Jade\\Renderer\\AdapterBase -->
<g id="node8" class="node"><title>\\Tale\\Jade\\Renderer\\AdapterBase</title>
<polygon fill="none" stroke="black" points="131,-703 40,-703 40,-667 131,-667 131,-703"/>
<text text-anchor="start" x="51.5" y="-688.2" font-family="Courier,monospace" font-size="11.00">«abstract»</text>
<text text-anchor="start" x="48" y="-676.2" font-family="Courier,monospace" font-size="11.00">AdapterBase</text>
</g>
<!-- \\Tale\\Jade\\Renderer\\Adapter\\File&#45;&gt;\\Tale\\Jade\\Renderer\\AdapterBase -->
<g id="edge4" class="edge"><title>\\Tale\\Jade\\Renderer\\Adapter\\File&#45;&gt;\\Tale\\Jade\\Renderer\\AdapterBase</title>
<path fill="none" stroke="black" d="M218.865,-707.541C197.73,-703.942 167.277,-698.756 140.908,-694.266"/>
<polygon fill="none" stroke="black" points="141.475,-690.812 131.03,-692.583 140.3,-697.713 141.475,-690.812"/>
</g>
<!-- \\Tale\\Jade\\Renderer\\Adapter\\Stream -->
<g id="node7" class="node"><title>\\Tale\\Jade\\Renderer\\Adapter\\Stream</title>
<polygon fill="none" stroke="black" points="274.546,-676 217.546,-676 217.546,-640 274.546,-640 274.546,-676"/>
<text text-anchor="middle" x="246.046" y="-655.2" font-family="Courier,monospace" font-size="11.00">Stream</text>
</g>
<!-- \\Tale\\Jade\\Renderer\\Adapter\\Stream&#45;&gt;\\Tale\\Jade\\Renderer\\AdapterBase -->
<g id="edge5" class="edge"><title>\\Tale\\Jade\\Renderer\\Adapter\\Stream&#45;&gt;\\Tale\\Jade\\Renderer\\AdapterBase</title>
<path fill="none" stroke="black" d="M217.429,-662.703C196.439,-666.278 166.89,-671.31 141.174,-675.689"/>
<polygon fill="none" stroke="black" points="140.435,-672.264 131.165,-677.394 141.611,-679.165 140.435,-672.264"/>
</g>
<!-- \\Tale\\Jade\\Compiler -->
<g id="node9" class="node"><title>\\Tale\\Jade\\Compiler</title>
<polygon fill="none" stroke="black" points="281.546,-320 210.546,-320 210.546,-284 281.546,-284 281.546,-320"/>
<text text-anchor="middle" x="246.046" y="-299.2" font-family="Courier,monospace" font-size="11.00">Compiler</text>
</g>
<!-- \\Tale\\Jade\\Filter -->
<g id="node10" class="node"><title>\\Tale\\Jade\\Filter</title>
<polygon fill="none" stroke="black" points="274.546,-266 217.546,-266 217.546,-230 274.546,-230 274.546,-266"/>
<text text-anchor="middle" x="246.046" y="-245.2" font-family="Courier,monospace" font-size="11.00">Filter</text>
</g>
<!-- \\Tale\\Jade\\Lexer -->
<g id="node11" class="node"><title>\\Tale\\Jade\\Lexer</title>
<polygon fill="none" stroke="black" points="273.046,-212 219.046,-212 219.046,-176 273.046,-176 273.046,-212"/>
<text text-anchor="middle" x="246.046" y="-191.2" font-family="Courier,monospace" font-size="11.00">Lexer</text>
</g>
<!-- \\Tale\\Jade\\Parser -->
<g id="node12" class="node"><title>\\Tale\\Jade\\Parser</title>
<polygon fill="none" stroke="black" points="274.546,-158 217.546,-158 217.546,-122 274.546,-122 274.546,-158"/>
<text text-anchor="middle" x="246.046" y="-137.2" font-family="Courier,monospace" font-size="11.00">Parser</text>
</g>
<!-- \\Tale\\Jade\\Renderer -->
<g id="node13" class="node"><title>\\Tale\\Jade\\Renderer</title>
<polygon fill="none" stroke="black" points="281.546,-104 210.546,-104 210.546,-68 281.546,-68 281.546,-104"/>
<text text-anchor="middle" x="246.046" y="-83.2" font-family="Courier,monospace" font-size="11.00">Renderer</text>
</g>
</g>
</svg>
